<svg width="160" height="120" viewBox="0 0 160 120" fill="none" xmlns="http://www.w3.org/2000/svg">
<g id="Logo_single 1">
<g id="Group">
<g id="Camada_1">
<g id="Group_2">
<path id="Vector" d="M83.6356 80.343H83.4696H83.3036C82.4736 79.5959 82.5981 78.5999 82.5981 77.6453C82.5981 64.9871 82.5981 52.3704 82.5981 39.7121C82.5981 38.7576 82.5566 37.7615 83.2621 36.973C83.3866 36.973 83.5526 36.973 83.6771 36.973V80.3015L83.6356 80.343Z" fill="#F2F3F4"/>
<path id="Vector_2" d="M63.5484 101.053C63.5484 101.177 63.5484 101.302 63.5484 101.426H56.991C56.991 101.302 56.991 101.177 56.991 101.053C59.1907 100.015 61.4318 99.9736 63.6314 101.053H63.5484Z" fill="#F2F3F4"/>
<path id="Vector_3" d="M63.5484 101.053C61.3488 101.053 59.1077 101.053 56.908 101.053C44.5403 98.5625 37.3189 89.6395 37.2359 76.4003C37.1114 58.6788 37.2359 40.9157 37.1944 23.1942C37.1944 21.8661 37.4849 21.3681 38.896 21.4096C42.9217 21.4926 46.989 21.4926 51.0147 21.4096C52.3428 21.4096 52.5918 21.8661 52.5918 23.0697C52.5918 37.8446 52.5918 52.6194 52.5918 67.4358C52.5918 68.3903 52.2598 69.0958 51.6372 69.8014C48.068 74.0761 47.736 79.8035 50.7657 84.2857C53.6294 88.519 58.7757 90.2206 64.005 88.685C71.5584 86.4439 74.4636 76.3173 69.2758 70.1334C68.3627 69.0543 68.0307 67.9753 68.0307 66.6057C68.0722 57.3922 68.1137 48.1786 68.0307 38.9651C68.0307 37.3465 68.4457 36.8485 70.0643 36.9315C74.4221 37.056 78.8213 37.0145 83.2206 37.056C83.2206 51.4988 83.2206 65.9417 83.2621 80.3845C82.598 83.7462 81.8095 87.0664 79.9834 90.0131C76.1652 96.1554 70.6868 99.8491 63.5484 101.011V101.053Z" fill="#F2F3F4"/>
<path id="Vector_4" d="M55.2479 77.5623C55.2479 74.7817 57.5721 72.4991 60.3112 72.4991C63.1749 72.4991 65.333 74.6987 65.333 77.5623C65.333 80.343 62.9674 82.7501 60.3112 82.7086C57.6551 82.7086 55.2479 80.2185 55.2479 77.5208V77.5623Z" fill="#F2F3F4"/>
</g>
</g>
</g>
</g>
</svg>
