<svg width="175" height="188" viewBox="0 0 175 188" fill="none" xmlns="http://www.w3.org/2000/svg">
<g id="Logo_vertical 1">
<g id="Group">
<g id="Camada_1">
<g id="Group_2">
<g id="Group_3">
<path id="Vector" d="M78.9479 146.179C78.9479 141.069 78.9479 135.997 78.9479 130.886C78.9479 130.223 79.0568 129.989 79.7468 130.028C84.9398 130.028 90.1328 130.028 95.3621 130.028C96.0521 130.028 96.161 130.262 96.1247 130.886C96.0884 131.862 96.0521 132.837 96.1247 133.851C96.161 134.592 95.9068 134.671 95.3258 134.671C91.549 134.671 87.7723 134.671 83.9956 134.671C83.3419 134.671 83.1967 134.866 83.1967 135.529C83.233 138.026 83.233 140.522 83.1967 142.98C83.1967 143.682 83.3056 143.916 84.0319 143.916C87.736 143.877 91.4764 143.916 95.1805 143.877C96.0157 143.877 96.1973 144.15 96.1247 144.931C96.0521 145.789 96.0521 146.647 96.1247 147.506C96.1973 148.286 96.0157 148.52 95.2168 148.52C91.5127 148.481 87.7723 148.52 84.0682 148.481C83.3419 148.481 83.1967 148.715 83.1967 149.456C83.233 151.914 83.233 154.372 83.1967 156.829C83.1967 157.532 83.3419 157.766 84.0319 157.727C87.8086 157.688 91.5854 157.727 95.3621 157.727C95.9431 157.727 96.161 157.844 96.1247 158.507C96.0521 159.521 96.0884 160.536 96.1247 161.55C96.1247 162.174 96.0157 162.369 95.3984 162.369C90.1691 162.369 84.9398 162.369 79.7105 162.369C79.0931 162.369 78.9842 162.174 78.9842 161.55C78.9842 156.439 78.9842 151.368 78.9842 146.257L78.9479 146.179Z" fill="#F2F3F4"/>
<path id="Vector_2" d="M61.7348 131.277C63.3689 130.34 64.9304 129.989 66.6009 130.067C70.9224 130.262 74.6264 134.28 74.6628 138.884C74.6628 146.452 74.6628 153.982 74.6628 161.55C74.6628 162.135 74.5538 162.369 73.9728 162.33C73.0649 162.291 72.1571 162.252 71.2129 162.33C70.5229 162.369 70.305 162.213 70.305 161.394C70.305 154.06 70.305 146.725 70.305 139.391C70.305 136.231 67.654 134.046 64.8941 134.866C63.0784 135.412 61.7348 137.323 61.7348 139.391C61.7348 146.686 61.7348 154.021 61.7348 161.316C61.7348 162.096 61.6258 162.408 60.8269 162.33C59.9917 162.252 59.1201 162.252 58.2486 162.33C57.5586 162.369 57.4133 162.135 57.4133 161.433C57.4133 153.084 57.4133 144.736 57.4133 136.387C57.4133 134.593 57.4133 132.759 57.4133 130.964C57.4133 130.301 57.5223 130.028 58.1759 130.067C59.0112 130.145 59.8827 130.145 60.7543 130.067C61.5169 130.028 61.9163 130.223 61.6258 131.316L61.7348 131.277Z" fill="#F2F3F4"/>
<path id="Vector_3" d="M53.2008 142.473C53.2008 146.14 53.2735 149.768 53.2008 153.435C53.0556 160.185 46.1921 164.515 40.6723 161.238C37.7308 159.482 36.0967 156.752 36.0967 153.084C36.0967 145.672 36.0967 138.221 36.0967 130.808C36.0967 130.184 36.2419 130.028 36.823 130.067C37.7308 130.106 38.6387 130.106 39.5466 130.067C40.2002 130.028 40.4181 130.184 40.3818 130.964C40.3818 138.26 40.3818 145.594 40.3818 152.889C40.3818 155.035 41.7254 156.986 43.5049 157.532C46.2285 158.351 48.9157 156.205 48.952 153.162C48.952 145.828 48.952 138.494 48.952 131.159C48.952 130.223 49.1699 130.028 50.0052 130.106C50.8767 130.184 51.7846 130.145 52.6561 130.106C53.2008 130.106 53.3098 130.301 53.3098 130.847C53.3098 134.749 53.3098 138.65 53.3098 142.551L53.2008 142.473Z" fill="#F2F3F4"/>
<path id="Vector_4" d="M100.373 146.14C100.373 143.916 100.373 141.732 100.373 139.508C100.301 134.787 103.351 131.237 106.874 130.301C110.832 129.248 114.645 131.159 116.642 135.139C117.223 136.27 117.441 137.479 117.514 138.728C117.514 139.118 117.441 139.274 117.042 139.274C115.916 139.274 114.827 139.274 113.701 139.274C113.301 139.274 113.265 139.118 113.193 138.728C112.902 136.231 110.905 134.514 108.617 134.67C106.329 134.826 104.659 136.816 104.659 139.352C104.659 143.877 104.659 148.364 104.659 152.889C104.659 155.425 106.365 157.493 108.617 157.688C110.868 157.883 112.866 156.088 113.193 153.591C113.229 153.279 113.265 153.084 113.628 153.084C114.754 153.084 115.916 153.084 117.042 153.084C117.55 153.084 117.478 153.435 117.478 153.747C117.405 156.088 116.497 158.039 114.972 159.599C110.396 164.281 103.424 162.759 100.918 156.478C100.482 155.386 100.373 154.216 100.337 153.045C100.337 150.743 100.337 148.442 100.337 146.14H100.373Z" fill="#F2F3F4"/>
<path id="Vector_5" d="M132.548 148.442C132.548 152.733 132.548 157.024 132.548 161.355C132.548 162.096 132.403 162.408 131.677 162.33C130.769 162.252 129.861 162.291 128.953 162.33C128.372 162.33 128.263 162.135 128.263 161.55C128.263 156.712 128.263 151.836 128.263 146.998C128.263 142.161 128.263 139.313 128.263 135.49C128.263 134.865 128.154 134.631 127.537 134.67C125.866 134.709 124.16 134.67 122.489 134.67C121.981 134.67 121.799 134.553 121.799 133.968C121.835 132.915 121.799 131.822 121.799 130.73C121.799 130.262 121.872 130.028 122.38 130.028C127.718 130.028 133.057 130.028 138.431 130.028C138.831 130.028 138.976 130.145 138.976 130.574C138.976 131.705 138.976 132.837 138.976 133.968C138.976 134.475 138.831 134.631 138.359 134.631C136.688 134.631 134.981 134.631 133.311 134.631C132.694 134.631 132.548 134.787 132.548 135.451C132.548 139.781 132.548 144.111 132.548 148.442Z" fill="#F2F3F4"/>
</g>
<g id="Group_4">
<path id="Vector_6" d="M78.7663 20.0913C78.7663 20.4034 78.7663 20.7155 78.7663 21.0276C78.7663 39.5194 78.7663 58.0112 78.7663 76.503C78.7663 77.0882 78.6211 77.4783 78.2579 77.9465C74.4086 82.4329 73.3555 87.5825 75.5343 93.2002C77.4953 98.1938 81.1631 101.081 86.2108 101.666C90.968 102.173 94.89 100.3 97.8315 96.2432C101.717 90.9375 101.463 82.901 96.5605 77.7514C96.1973 77.3613 96.0884 77.0102 96.0884 76.464C96.0884 64.2142 96.0884 51.9643 96.0884 39.7145C96.0884 39.0122 96.2337 38.7782 96.9236 38.7782C102.226 38.7782 107.491 38.7782 112.793 38.7782C113.41 38.7782 113.592 38.9342 113.592 39.6364C113.592 56.1776 113.665 72.7578 113.556 89.299C113.519 96.3212 111.05 102.446 106.547 107.557C101.245 113.604 94.6358 116.686 86.9008 116.452C78.6937 116.217 71.9755 112.55 66.8915 105.606C63.1147 100.457 61.3717 94.5657 61.408 88.0506C61.408 65.6576 61.408 43.2646 61.408 20.8716C61.408 20.6375 61.4443 20.4034 61.4806 20.1303H78.8027L78.7663 20.0913Z" fill="#F2F3F4"/>
<path id="Vector_7" d="M81.6715 87.7385C81.6715 84.2274 84.2498 81.4575 87.5182 81.4575C90.7865 81.4575 93.3285 84.2274 93.2922 87.7775C93.2922 91.2886 90.7502 93.9804 87.4818 93.9804C84.1772 93.9804 81.6352 91.2496 81.6352 87.6995L81.6715 87.7385Z" fill="#F2F3F4"/>
</g>
</g>
</g>
</g>
</g>
</svg>
